<svg xmlns="http://www.w3.org/2000/svg" width="253" height="253">
    <circle cx="130.828" cy="123.719" r="90.828" fill="#0080ff"/>
    <circle data-name="Ellipse 1 copy 4" cx="130.906" cy="123.562" r="64.688" fill="#097ef1"/>
    <circle data-name="Ellipse 1 copy 3" cx="130.828" cy="123.75" r="60.922" fill="#3299ff"/>
    <circle data-name="Ellipse 1 copy 2" cx="130.797" cy="123.734" r="36.859" fill="#fff"/>
    <path data-name="Ellipse 1 copy" d="M100.377 8.589C164.363-8.5 230.133 29.344 247.278 93.108S226.451 222.413 162.464 239.5s-129.756-20.755-146.9-84.519S36.39 25.674 100.377 8.589Z" fill-rule="evenodd" fill="none" stroke="#93b4d4" stroke-width="3.01px"/>
    <path d="M10.511 87.313A14.14 14.14 0 1 1 .486 104.628a14.182 14.182 0 0 1 10.025-17.315Z" fill="#ff3f3f" fill-rule="evenodd"/>
    <path data-name="Ellipse 2 copy 2" d="M225.771 44.665A10.566 10.566 0 1 1 218.29 57.6a10.582 10.582 0 0 1 7.481-12.935Z" fill="#263a5b" fill-rule="evenodd"/>
    <circle data-name="Ellipse 2 copy" cx="167.156" cy="235.875" r="14.188" fill="#18d26b"/>
</svg>
