<svg version="1.1" id="Layer_1" xmlns="http://www.w3.org/2000/svg" x="0" y="0" viewBox="0 0 50 50" style="enable-background:new 0 0 50 50" xml:space="preserve">
    <g id="toggle_x5F_1">
        <path opacity=".5" fill="#fff" enable-background="new" d="M25.1 13.6h17.1c2.1 0 3.7-1.7 3.7-3.7 0-2.1-1.7-3.7-3.7-3.7H25.1c-2.1 0-3.7 1.7-3.7 3.7s1.6 3.7 3.7 3.7z"/>
        <path d="M7.7 28.7h34.4c2.1 0 3.7-1.7 3.7-3.7 0-2.1-1.7-3.7-3.7-3.7H7.7C5.6 21.3 4 23 4 25s1.7 3.7 3.7 3.7z" fill="#fff"/>
        <path opacity=".5" fill="#fff" enable-background="new" d="M16.3 43.7h25.9c2.1 0 3.7-1.7 3.7-3.7 0-2.1-1.7-3.7-3.7-3.7H16.3c-2.1 0-3.7 1.7-3.7 3.7-.1 2 1.6 3.7 3.7 3.7z"/>
    </g>
</svg>
