<svg xmlns="http://www.w3.org/2000/svg" width="236.072" height="63.222" viewBox="0 0 236.072 63.222">
  <g id="Group_200" data-name="Group 200" transform="translate(-771.337 -70.674)">
    <g id="Group_1211" transform="translate(-12614.096 4383.241)">
      <rect id="Rectangle_202" width="63.222" height="63.222" transform="translate(13385.433 -4312.567)" fill="#ffe01b"/>
      <g id="Group_1210" transform="translate(13401.132 -4299.398)">
        <g id="Group_1" transform="translate(0 0)">
          <path id="Path_1" d="M237.793,208.788H219.8v-4.011A21.706,21.706,0,0,1,241.476,183.1v8.016a13.69,13.69,0,0,0-13.059,9.649h9.376Z" transform="translate(-219.8 -183.1)" fill="#a04ef6"/>
        </g>
        <path id="Path_2" d="M698.64,719.7s-4.545,4.187-3.629,6.718c1.365.34,5.456-6.718,5.456-6.718Z" transform="translate(-682.482 -702.033)" fill="#7f37ca"/>
        <g id="Group_2" transform="translate(7.945 12.663)">
          <path id="Path_3" d="M359.073,366.7v8.016a16.08,16.08,0,0,0-16.057,16.063H335A24.105,24.105,0,0,1,359.073,366.7Z" transform="translate(-335 -366.7)" fill="#a04ef6"/>
        </g>
      </g>
    </g>
    <path id="Path_1-2" data-name="Path 1" d="M1.656,0h3.36V-7.08h5.352V-9.744H5.016v-4.3H12v-2.712H1.656ZM27.7-6.648a6.57,6.57,0,0,0-6.84-6.864,6.57,6.57,0,0,0-6.84,6.864A6.508,6.508,0,0,0,20.76.216,6.647,6.647,0,0,0,27.7-6.648Zm-10.272,0c0-2.664,1.608-3.936,3.384-3.936S24.24-9.312,24.24-6.648c0,2.64-1.7,3.936-3.48,3.936C18.96-2.712,17.424-4.008,17.424-6.648Zm16.584.024c0-2.568,1.2-3.336,3.192-3.336h.888v-3.528a4.611,4.611,0,0,0-4.08,2.256V-13.3h-3.36V0h3.36ZM43.248,0H46.9L49.32-9.288,51.744,0h3.624l3.888-13.3H56.04l-2.352,10.1-2.5-10.1H47.64L45.1-3.168,42.744-13.3H39.336ZM60.7-6.7c0,4.152,2.688,6.912,6.048,6.912a5.244,5.244,0,0,0,4.416-2.16V0h3.384V-13.3H71.16v1.9a5.258,5.258,0,0,0-4.392-2.112C63.384-13.512,60.7-10.848,60.7-6.7Zm10.464.048a3.58,3.58,0,0,1-3.528,3.912,3.633,3.633,0,0,1-3.5-3.96,3.546,3.546,0,0,1,3.5-3.864A3.58,3.58,0,0,1,71.16-6.648Zm10.512.024c0-2.568,1.2-3.336,3.192-3.336h.888v-3.528a4.611,4.611,0,0,0-4.08,2.256V-13.3h-3.36V0h3.36ZM87.624-6.7c0,4.152,2.688,6.912,6.072,6.912a5.025,5.025,0,0,0,4.368-2.184V0h3.408V-17.76H98.064v6.312a5.456,5.456,0,0,0-4.344-2.064C90.312-13.512,87.624-10.848,87.624-6.7Zm10.464.048A3.58,3.58,0,0,1,94.56-2.736a3.633,3.633,0,0,1-3.5-3.96,3.546,3.546,0,0,1,3.5-3.864A3.58,3.58,0,0,1,98.088-6.648Zm6.288,0c0,4.176,2.736,6.864,6.576,6.864a6.065,6.065,0,0,0,6.264-4.7h-3.624a2.536,2.536,0,0,1-2.664,1.824c-1.872,0-3.12-1.392-3.12-3.984s1.248-4.008,3.12-4.008a2.612,2.612,0,0,1,2.664,1.848h3.624c-.72-2.976-2.952-4.7-6.264-4.7C107.112-13.512,104.376-10.824,104.376-6.648Zm28.632,0a6.57,6.57,0,0,0-6.84-6.864,6.57,6.57,0,0,0-6.84,6.864A6.508,6.508,0,0,0,126.072.216,6.647,6.647,0,0,0,133.008-6.648Zm-10.272,0c0-2.664,1.608-3.936,3.384-3.936s3.432,1.272,3.432,3.936c0,2.64-1.7,3.936-3.48,3.936C124.272-2.712,122.736-4.008,122.736-6.648ZM135.1-6.7c0,4.152,2.688,6.912,6.072,6.912a5.025,5.025,0,0,0,4.368-2.184V0h3.408V-17.76h-3.408v6.312a5.456,5.456,0,0,0-4.344-2.064C137.784-13.512,135.1-10.848,135.1-6.7Zm10.464.048a3.58,3.58,0,0,1-3.528,3.912,3.633,3.633,0,0,1-3.5-3.96,3.546,3.546,0,0,1,3.5-3.864A3.58,3.58,0,0,1,145.56-6.648Zm12.864-4.1A2.954,2.954,0,0,1,161.592-7.9H155.28A3.088,3.088,0,0,1,158.424-10.752Zm6.312,6.576h-3.624a2.74,2.74,0,0,1-2.664,1.608,3.111,3.111,0,0,1-3.192-3.072h9.72a7.853,7.853,0,0,0,.1-1.3,6.242,6.242,0,0,0-6.552-6.576c-3.936,0-6.672,2.664-6.672,6.864,0,4.176,2.808,6.864,6.672,6.864A6.18,6.18,0,0,0,164.736-4.176Z" transform="translate(842.337 95.674)" fill="#fff"/>
    <path id="Path_2-2" data-name="Path 2" d="M11.132-15.334v1.628H6.952V0h-2V-13.706H.748v-1.628Zm13.9,8.844a11.782,11.782,0,0,1-.066,1.21H15.334A3.9,3.9,0,0,0,16.555-2.5a3.883,3.883,0,0,0,2.695,1A3.7,3.7,0,0,0,21.417-2.1a3.2,3.2,0,0,0,1.221-1.617h2.156A5.183,5.183,0,0,1,22.858-.891,5.843,5.843,0,0,1,19.25.2a6.094,6.094,0,0,1-3.069-.77,5.45,5.45,0,0,1-2.123-2.189,6.789,6.789,0,0,1-.77-3.289,6.886,6.886,0,0,1,.748-3.278,5.251,5.251,0,0,1,2.1-2.167,6.254,6.254,0,0,1,3.113-.759,6.051,6.051,0,0,1,3.036.748,5.179,5.179,0,0,1,2.035,2.057A6.071,6.071,0,0,1,25.036-6.49Zm-2.068-.418a3.693,3.693,0,0,0-.506-1.969,3.29,3.29,0,0,0-1.375-1.254,4.289,4.289,0,0,0-1.925-.429,3.711,3.711,0,0,0-2.585.968,3.944,3.944,0,0,0-1.221,2.684Zm4.4.858a6.82,6.82,0,0,1,.748-3.267A5.382,5.382,0,0,1,30.2-11.484a5.973,5.973,0,0,1,3.047-.77A5.948,5.948,0,0,1,36.9-11.176a5.088,5.088,0,0,1,1.9,2.992H36.652a3.1,3.1,0,0,0-1.2-1.738,3.7,3.7,0,0,0-2.211-.638A3.547,3.547,0,0,0,30.47-9.383,4.822,4.822,0,0,0,29.414-6.05,4.9,4.9,0,0,0,30.47-2.684,3.531,3.531,0,0,0,33.242-1.5a3.744,3.744,0,0,0,2.2-.616,3.123,3.123,0,0,0,1.21-1.76h2.156A5.3,5.3,0,0,1,36.872-.913,5.8,5.8,0,0,1,33.242.2,5.973,5.973,0,0,1,30.2-.572,5.364,5.364,0,0,1,28.116-2.75,6.935,6.935,0,0,1,27.368-6.05Zm20.526-6.226a5.179,5.179,0,0,1,2.464.583,4.14,4.14,0,0,1,1.727,1.749,5.923,5.923,0,0,1,.627,2.838V0h-1.98V-6.82a3.876,3.876,0,0,0-.9-2.761,3.223,3.223,0,0,0-2.464-.957,3.3,3.3,0,0,0-2.519.99,4.045,4.045,0,0,0-.935,2.882V0h-2V-16.28h2v5.94a3.944,3.944,0,0,1,1.639-1.43A5.306,5.306,0,0,1,47.894-12.276ZM60.7.2a6.236,6.236,0,0,1-2.486-.473,4.193,4.193,0,0,1-1.738-1.32,3.513,3.513,0,0,1-.7-1.947h2.068a2.029,2.029,0,0,0,.847,1.474,3.223,3.223,0,0,0,1.991.572A2.9,2.9,0,0,0,62.48-2a1.546,1.546,0,0,0,.66-1.276,1.258,1.258,0,0,0-.7-1.177,9.871,9.871,0,0,0-2.178-.759,16.008,16.008,0,0,1-2.189-.715,3.884,3.884,0,0,1-1.452-1.078,2.813,2.813,0,0,1-.6-1.881,2.851,2.851,0,0,1,.55-1.694A3.728,3.728,0,0,1,58.124-11.8a5.621,5.621,0,0,1,2.31-.451,4.933,4.933,0,0,1,3.234,1.012,3.646,3.646,0,0,1,1.32,2.772h-2a2.069,2.069,0,0,0-.759-1.518,2.83,2.83,0,0,0-1.859-.572,2.868,2.868,0,0,0-1.716.462,1.428,1.428,0,0,0-.638,1.21,1.326,1.326,0,0,0,.385.979,2.812,2.812,0,0,0,.968.616,16.679,16.679,0,0,0,1.617.517,17.417,17.417,0,0,1,2.112.693,3.693,3.693,0,0,1,1.4,1.023A2.735,2.735,0,0,1,65.1-3.278a3.051,3.051,0,0,1-.55,1.782A3.668,3.668,0,0,1,63-.253,5.544,5.544,0,0,1,60.7.2Zm10.1-10.6V-3.3a1.691,1.691,0,0,0,.374,1.243,1.843,1.843,0,0,0,1.3.363h1.474V0h-1.8A3.59,3.59,0,0,1,69.63-.77a3.3,3.3,0,0,1-.836-2.53v-7.106H67.232v-1.65h1.562v-3.036h2v3.036h3.146v1.65Zm16.7-1.65V0h-2V-1.782A3.9,3.9,0,0,1,83.9-.341a4.927,4.927,0,0,1-2.255.517,5.4,5.4,0,0,1-2.53-.583,4.238,4.238,0,0,1-1.771-1.749,5.758,5.758,0,0,1-.649-2.838v-7.062h1.98v6.8a3.843,3.843,0,0,0,.9,2.739,3.223,3.223,0,0,0,2.464.957,3.292,3.292,0,0,0,2.53-.99,4.075,4.075,0,0,0,.924-2.882v-6.622Zm3.08,5.984a6.772,6.772,0,0,1,.748-3.245,5.427,5.427,0,0,1,2.057-2.167,5.684,5.684,0,0,1,2.937-.77,5.453,5.453,0,0,1,2.618.649,4.683,4.683,0,0,1,1.848,1.7v-6.38h2.024V0h-2.024V-2.266A4.685,4.685,0,0,1,99.022-.5,5.239,5.239,0,0,1,96.294.2a5.522,5.522,0,0,1-2.915-.792,5.529,5.529,0,0,1-2.057-2.222A6.92,6.92,0,0,1,90.574-6.072Zm10.208.022a4.9,4.9,0,0,0-.55-2.376,3.884,3.884,0,0,0-1.485-1.551,4.046,4.046,0,0,0-2.057-.539,4.051,4.051,0,0,0-2.046.528,3.831,3.831,0,0,0-1.474,1.54,4.9,4.9,0,0,0-.55,2.376,5.015,5.015,0,0,0,.55,2.409A3.891,3.891,0,0,0,94.644-2.1a3.986,3.986,0,0,0,2.046.539A4.046,4.046,0,0,0,98.747-2.1a3.867,3.867,0,0,0,1.485-1.562A4.966,4.966,0,0,0,100.782-6.05Zm6.886-7.964a1.317,1.317,0,0,1-.968-.4,1.317,1.317,0,0,1-.4-.968,1.317,1.317,0,0,1,.4-.968,1.317,1.317,0,0,1,.968-.4,1.255,1.255,0,0,1,.935.4,1.336,1.336,0,0,1,.385.968,1.336,1.336,0,0,1-.385.968A1.255,1.255,0,0,1,107.668-14.014Zm.968,1.958V0h-2V-12.056ZM117.744.2a6.172,6.172,0,0,1-3.069-.77,5.482,5.482,0,0,1-2.156-2.189,6.711,6.711,0,0,1-.781-3.289,6.518,6.518,0,0,1,.8-3.267,5.533,5.533,0,0,1,2.189-2.178,6.351,6.351,0,0,1,3.1-.759,6.351,6.351,0,0,1,3.1.759,5.553,5.553,0,0,1,2.189,2.167,6.5,6.5,0,0,1,.8,3.278,6.424,6.424,0,0,1-.825,3.289,5.718,5.718,0,0,1-2.233,2.189A6.4,6.4,0,0,1,117.744.2Zm0-1.76a4.227,4.227,0,0,0,2.024-.506A3.85,3.85,0,0,0,121.3-3.586a4.862,4.862,0,0,0,.583-2.464,4.937,4.937,0,0,0-.572-2.464,3.746,3.746,0,0,0-1.5-1.507,4.174,4.174,0,0,0-2-.495,4.155,4.155,0,0,0-2.013.495,3.629,3.629,0,0,0-1.463,1.507,5.1,5.1,0,0,0-.55,2.464,5.235,5.235,0,0,0,.539,2.486,3.583,3.583,0,0,0,1.441,1.507A4.048,4.048,0,0,0,117.744-1.562Z" transform="translate(842 125)" fill="#fff"/>
  </g>
</svg>
