<svg version="1.1" id="Layer_1" xmlns="http://www.w3.org/2000/svg" x="0" y="0" viewBox="0 0 50 50" style="enable-background:new 0 0 50 50" xml:space="preserve">
    <g id="pages">
        <path d="M42.4 15.1v19.2c0 3.1-2.6 5.7-5.7 5.7H19.6c-4.5 0-5.7-1.9-5.7-5.7V8.5c0-3.1 2.6-5.7 5.7-5.7h11.7V12s-.1 3.2 3.2 3.2c3.4-.1 7.9-.1 7.9-.1" style="fill:#fff"/>
        <path style="opacity:.5;fill:#fff;enable-background:new" d="M35 41.6c0 3.1-2.6 5.7-5.7 5.7H12.2c-3.1 0-5.7-2.6-5.7-5.7V15.7c0-3.1 2.6-5.7 5.7-5.7v26.8s0 4.8 4.8 4.8h18zM42.4 15.1h-7.5c-4 0-3.5-3.5-3.5-3.5V2.8"/>
    </g>
</svg>
